<?xml version="1.0" encoding="UTF-8"?>
<svg width="685px" height="137px" viewBox="0 0 685 137" version="1.1" xmlns="http://www.w3.org/2000/svg" xmlns:xlink="http://www.w3.org/1999/xlink">
    <!-- Generator: Sketch 43.1 (39012) - http://www.bohemiancoding.com/sketch -->
    <title>green-army-logo</title>
    <desc>Created with Sketch.</desc>
    <defs></defs>
    <g id="Page-1" stroke="none" stroke-width="1" fill="none" fill-rule="evenodd">
        <g id="green-army-logo" fill="#60A835">
            <path d="M95.093,58.377 L95.093,31.232 C79.377,20.98 63.655,10.726 47.937,0.476 C32.245,10.712 16.548,20.954 0.858,31.19 L0.858,110.458 C3.292,111.991 5.689,113.577 8.198,115.049 C12.847,117.784 18.144,119.984 23.698,121.737 C26.874,122.737 30.208,123.4 33.664,124.156 C35.031,124.346 36.397,124.538 37.763,124.729 C39.657,125.073 41.779,124.978 43.793,125.303 C44.503,125.316 45.216,125.331 45.925,125.345 C47.357,125.579 49.988,125.521 51.38,125.303 C52.934,125.207 54.494,125.11 56.054,125.014 C60.019,124.334 63.781,124.005 67.373,123.087 C74.11,121.367 80.836,119.026 86.233,115.871 C87.943,114.874 89.655,113.876 91.363,112.875 C92.607,112.071 93.848,111.265 95.092,110.457 L95.092,67.152 L71.841,67.152 L71.841,45.748 C63.859,40.485 55.874,35.222 47.895,29.957 C39.898,35.18 31.898,40.402 23.902,45.622 L23.902,97.87 C26.519,99.401 29.828,100.08 32.966,101.026 C34.612,101.523 36.613,102.135 38.5,102.215 L38.5,81.669 L57.28,81.669 L57.28,102.215 C60.415,101.587 63.264,101.011 66.059,100.124 C68.037,99.496 69.924,98.51 71.841,97.951 L71.841,81.669 L80.535,81.669 L80.535,102.296 C79.855,102.983 78.589,103.362 77.708,103.816 C75.314,105.035 72.812,105.981 70.159,107.014 C61.37,110.439 46.779,112.177 35.548,109.677 C30.865,108.636 26.51,107.528 22.508,105.824 C20.056,104.78 17.776,103.482 15.456,102.38 L15.456,39.062 C26.283,31.998 37.108,24.928 47.936,17.86 C58.8,24.939 69.668,32.023 80.535,39.102 L80.535,58.376 C85.39,58.377 90.243,58.377 95.093,58.377 Z M57.282,57.107 L57.282,67.154 L38.502,67.154 L38.502,53.5 C41.619,51.477 44.736,49.454 47.853,47.432 C50.97,49.48 54.087,51.531 57.204,53.583 C57.428,53.843 57.282,56.513 57.282,57.107 Z" id="Shape"></path>
            <path d="M169.399,55.539 C167.094,55.53 164.788,55.518 162.479,55.506 L148.956,55.506 L148.956,65.621 L162.731,65.621 C164.881,65.621 167.193,65.34 168.13,66.587 C169.015,67.761 168.662,72.628 168.658,74.804 L150.569,74.804 C147.408,74.804 144.27,75 142.873,73.256 C141.79,71.9 141.914,70.319 141.914,67.887 L141.914,58.922 C141.914,55.801 141.423,50.33 142.748,48.586 C144.42,46.398 148.85,46.944 152.68,46.944 L178.705,46.944 L178.705,36.927 L148.085,36.927 C141.459,36.927 136.281,36.556 133.504,40.491 C131.049,43.986 131.832,51.433 131.832,57.241 L131.832,69.593 C131.842,71.475 131.851,73.357 131.862,75.239 C132.18,77.003 132.737,78.429 133.602,79.647 C137.43,85.041 144.417,84.918 153.55,84.918 L178.769,84.918 L178.769,70.367 C178.769,65.23 178.946,62.024 176.661,59.107 C175.054,57.062 172.529,56.081 169.399,55.539 Z M256.295,36.954 C252.741,37.565 250.17,38.707 248.476,41.143 C247.828,42.079 247.409,43.252 247.11,44.524 C246.792,45.893 246.925,47.709 246.925,49.334 L246.925,57.836 L246.925,69.991 C246.925,72.142 246.702,74.684 247.11,76.542 C247.608,78.803 248.442,80.461 249.654,81.968 C252.304,85.268 257.275,84.917 263.181,84.917 L292.59,84.917 L292.59,74.802 L268.332,74.802 C264.882,74.802 260.349,75.303 258.4,73.747 C256.657,72.354 257.018,68.79 257.035,65.653 L285.92,65.653 L285.92,55.538 L257.035,55.538 C257.025,52.523 256.679,49.223 258.372,47.904 C260.12,46.543 264.955,47.037 268.112,47.037 L292.59,47.037 L292.59,36.926 L264.609,36.926 C261.837,36.935 259.067,36.947 256.295,36.954 Z M310.99,36.954 C307.491,37.557 304.913,38.665 303.23,41.053 C302.525,42.055 302.083,43.277 301.774,44.678 C301.485,46.014 301.586,47.701 301.586,49.274 C301.599,52.084 301.611,54.895 301.62,57.706 L301.62,70.058 C301.62,72.257 301.4,74.86 301.835,76.73 C302.339,78.873 303.151,80.486 304.316,81.937 C307.001,85.273 311.964,84.918 317.938,84.918 L347.286,84.918 L347.286,74.803 L323.025,74.803 C319.622,74.803 315.065,75.313 313.131,73.781 C311.348,72.376 311.68,68.852 311.702,65.654 L340.615,65.654 L340.615,55.539 L311.702,55.539 C311.693,52.752 311.334,49.314 312.879,48.06 C313.353,47.677 313.917,47.342 314.589,47.163 C315.411,46.935 316.41,47.038 317.413,47.038 L322.778,47.038 L347.286,47.038 L347.286,36.927 L319.147,36.927 C316.426,36.935 313.708,36.947 310.99,36.954 Z M401.419,48.187 C400.802,44.577 399.89,41.73 397.576,39.872 C395.977,38.594 394.224,37.698 391.865,37.143 C390.683,36.867 389.233,36.927 387.8,36.927 L381.784,36.927 L358.703,36.927 C358.682,52.924 358.664,68.921 358.64,84.919 L368.782,84.919 L368.782,46.884 L383.646,46.884 C385.965,46.884 388.701,46.615 390.005,47.629 C392.036,49.209 391.434,54.057 391.434,57.617 L391.434,84.853 L401.484,84.853 L401.484,56.097 L401.484,50.948 C401.463,50.027 401.437,49.107 401.419,48.187 Z M235.695,65.87 C236.767,63.361 236.531,59.376 236.531,55.755 L236.531,36.955 L207.216,36.955 L201.29,36.955 C199.68,36.955 198.087,36.915 196.791,37.233 C195.211,37.632 193.974,38.312 192.885,39.188 C191.033,40.675 190.123,43.135 189.625,45.983 C189.604,46.903 189.587,47.825 189.563,48.745 L189.563,53.96 L189.563,84.826 C192.932,84.838 196.305,84.847 199.677,84.854 L199.677,71.639 L212.829,71.639 C217.378,76.055 221.934,80.471 226.482,84.887 L239.634,84.887 L239.634,84.854 C235.271,80.349 230.905,75.836 226.541,71.331 C231.225,71.023 234.212,69.336 235.695,65.87 Z M225.798,60.44 C224.634,61.943 221.329,61.528 218.694,61.528 L199.647,61.528 L199.647,54.175 C199.647,52.973 199.481,51.462 199.74,50.423 C199.944,49.592 200.331,48.916 200.794,48.346 C202.104,46.716 205.209,47.01 208.147,47.01 L226.419,47.01 L226.419,56.13 C226.419,57.849 226.532,59.49 225.798,60.44 Z" id="Shape"></path>
            <path d="M608.122,84.853 L598.354,84.853 L598.354,59.01 C598.354,55.377 598.891,50.52 597.27,48.435 C596.812,47.857 596.066,47.4 595.278,47.163 C594.336,46.878 592.976,46.976 591.775,46.976 L585.259,46.976 L585.259,84.796 L575.303,84.796 L575.303,46.976 L562.268,46.976 L562.268,84.853 C558.878,84.846 555.49,84.837 552.092,84.825 C552.106,68.827 552.116,52.826 552.123,36.832 L583.955,36.832 L591.153,36.832 C592.716,36.832 594.347,36.752 595.679,37.016 C599.895,37.86 603.222,39.424 605.39,42.291 C606.871,44.251 607.542,46.463 608.054,49.457 C608.08,50.459 608.103,51.465 608.12,52.467 L608.12,58.236 C608.122,67.108 608.122,75.981 608.122,84.853 Z" id="Shape"></path>
            <path d="M618.331,36.894 L628.442,36.894 L628.442,48.06 C628.442,50.748 628.313,52.736 629.502,54.235 C630.796,55.877 633.95,55.539 636.882,55.539 L655.555,55.539 L655.555,36.954 L665.706,36.954 L665.706,67.914 L665.706,75.206 C665.195,78.327 664.439,80.959 662.448,82.559 C661.235,83.533 659.949,84.233 658.165,84.673 C656.918,84.974 655.369,84.917 653.855,84.917 L647.712,84.917 L618.299,84.917 L618.299,74.769 L645.138,74.769 C648.523,74.769 653.389,75.356 654.871,73.437 C655.961,72.036 655.565,68.121 655.555,65.653 L635.302,65.653 C632.735,65.641 630.169,65.632 627.606,65.62 C624.19,65.042 621.652,63.938 620.009,61.616 C618.226,59.116 618.298,55.937 618.298,51.627 C618.306,46.719 618.319,41.803 618.331,36.894 Z" id="Shape"></path>
            <path d="M479.224,39.502 C477.705,38.28 476.015,37.485 473.733,36.988 C471.872,36.581 469.309,36.833 467.188,36.833 L454.652,36.833 L446.155,36.833 C444.493,36.833 442.658,36.712 441.258,37.017 C439.849,37.33 438.603,37.795 437.591,38.508 C435.237,40.182 434.174,42.683 433.59,46.174 C433.579,48.923 433.566,51.67 433.559,54.424 L433.559,84.826 L443.581,84.826 L443.581,70.555 L472.088,70.555 L472.088,84.826 L482.139,84.826 L482.139,53.397 C482.139,47.379 482.588,42.21 479.224,39.502 Z M472.03,53.551 L472.03,60.566 C462.547,60.574 453.064,60.582 443.581,60.599 L443.581,53.832 C443.581,52.711 443.432,51.323 443.671,50.357 C443.938,49.269 444.452,48.279 445.221,47.693 C446.593,46.638 449.103,46.821 451.552,46.821 L464.705,46.821 C467.475,46.821 469.855,46.752 471.068,48.28 C471.427,48.737 471.729,49.29 471.903,49.926 C472.172,50.915 472.03,52.369 472.03,53.551 Z" id="Shape"></path>
            <path d="M530.104,71.296 C531.971,71.162 533.714,70.09 534.943,69.219 C537.338,67.52 538.951,65.104 539.783,61.837 C540.394,59.433 540.124,55.971 540.124,53.054 L540.124,36.955 L510.868,36.955 L504.972,36.955 C503.275,36.955 501.605,36.919 500.257,37.269 C498.712,37.664 497.515,38.361 496.443,39.22 C494.5,40.776 493.684,43.33 493.185,46.356 C493.172,48.878 493.164,51.399 493.155,53.926 L493.155,84.825 C496.525,84.837 499.898,84.846 503.267,84.853 L503.267,71.638 L516.426,71.638 C520.971,76.054 525.521,80.47 530.071,84.886 L543.253,84.886 C538.87,80.356 534.486,75.826 530.104,71.296 Z M529.42,60.721 C528.532,61.902 524.716,61.528 522.592,61.528 L503.237,61.528 L503.237,54.175 C503.237,52.981 503.071,51.486 503.332,50.451 C503.549,49.568 503.944,48.879 504.448,48.28 C505.76,46.712 508.881,47.009 511.766,47.009 L530.007,47.009 L530.007,56.313 C530.006,58.049 530.169,59.727 529.42,60.721 Z" id="Shape"></path>
            <path d="M679.667,31.674 C682.529,31.674 684.804,34.001 684.804,36.907 C684.804,39.858 682.529,42.158 679.646,42.158 C676.788,42.158 674.467,39.858 674.467,36.907 C674.467,34.001 676.788,31.674 679.646,31.674 L679.667,31.674 L679.667,31.674 Z M679.647,32.492 C677.346,32.492 675.462,34.465 675.462,36.907 C675.462,39.392 677.346,41.344 679.667,41.344 C681.994,41.367 683.849,39.392 683.849,36.93 C683.849,34.466 681.994,32.493 679.667,32.493 L679.647,32.493 L679.647,32.492 Z M678.669,39.956 L677.741,39.956 L677.741,34.12 C678.229,34.049 678.697,33.979 679.391,33.979 C680.27,33.979 680.855,34.163 681.203,34.424 C681.549,34.673 681.734,35.074 681.734,35.627 C681.734,36.392 681.223,36.864 680.594,37.049 L680.594,37.092 C681.109,37.185 681.463,37.651 681.577,38.513 C681.711,39.414 681.854,39.761 681.952,39.957 L680.975,39.957 C680.835,39.761 680.691,39.23 680.574,38.466 C680.433,37.723 680.064,37.44 679.325,37.44 L678.67,37.44 L678.67,39.956 L678.669,39.956 Z M678.669,36.723 L679.346,36.723 C680.105,36.723 680.768,36.44 680.768,35.725 C680.768,35.21 680.387,34.694 679.346,34.694 C679.043,34.694 678.832,34.727 678.669,34.743 L678.669,36.723 Z" id="Shape" fill-rule="nonzero"></path>
            <text id="Healthy-Home-&amp;-Pest-Solutions" font-family="Helvetica-BoldOblique, Helvetica" font-size="25" font-style="italic" font-weight="bold">
                <tspan x="214.5083" y="130.1142">Healthy Home &amp; Pest Solutions</tspan>
            </text>
        </g>
    </g>
</svg>